<svg version="1.0" xmlns="http://www.w3.org/2000/svg" width="186.667" height="186.667" viewBox="0 0 240 240">
  <path d="M24.5 8.2c-5.3 1.9-10.4 5.7-13.5 10-6.2 8.5-6.1 6.4-5.8 96.4.3 91.7-.2 85.1 7.7 93.7 2.3 2.5 6.5 5.5 9.4 6.8l5.2 2.4H116c72.7 0 89.4-.2 93.3-1.4 5.7-1.7 13.8-8.6 17-14.5l2.2-4.1.3-82.9c.3-95.3.7-90.2-8.1-99.1-9.1-9.1-2.4-8.5-104.1-8.4-61 0-90 .4-92.1 1.1zm183.1 14.4c1.5 1.1 3.7 3.3 4.8 4.8 2 2.7 2.1 4.1 2.4 46.2.1 23.9-.1 43.4-.5 43.4s-9.4-8.6-19.9-19.1l-19.1-19.1-31.3 37.1c-17.2 20.4-31.6 37.1-31.9 37.1-.4 0-9.9-7.6-21.1-17-11.2-9.4-20.8-17-21.2-17-.4 0-11.7 10.3-25 23-13.3 12.6-24.5 23-24.8 23-.3 0-.3-30.8 0-68.4l.5-68.5 3-3.1c1.6-1.7 4.3-3.5 6-3.9 1.7-.5 41.1-.9 89.2-.8 85.3.2 86.2.2 88.9 2.3z"/>
  <path d="M50.5 39.9c-13.9 6.4-16.6 23.8-5.2 33.8 4.8 4.2 9.7 5.7 16.5 5 16.9-1.8 24.8-20.9 13.9-33.4-6.1-7-16.8-9.3-25.2-5.4z"/>
</svg>
