<svg width="105" height="16" fill="none" xmlns="http://www.w3.org/2000/svg">
  <g clip-path="url('#clip0_3197_816')">
    <path d="M.288 6.164a.468.468 0 0 1 .377-.319l4.945-.72L7.822.63a.467.467 0 0 1 .838 0l2.212 4.495 4.945.72a.468.468 0 0 1 .26.8l-3.58 3.498.845 4.94a.47.47 0 0 1-.678.495l-4.423-2.333-4.423 2.333a.466.466 0 0 1-.678-.495l.845-4.94-3.58-3.498a.47.47 0 0 1-.117-.48Z" fill="#FFB800"/>
  </g>
  <g clip-path="url('#clip1_3197_816')">
    <path d="M22.223 6.164a.468.468 0 0 1 .377-.319l4.945-.72L29.757.63a.467.467 0 0 1 .838 0l2.212 4.495 4.945.72a.468.468 0 0 1 .26.8l-3.58 3.498.845 4.94a.47.47 0 0 1-.678.495l-4.423-2.333-4.423 2.333a.466.466 0 0 1-.678-.495l.845-4.94-3.58-3.498a.47.47 0 0 1-.117-.48Z" fill="#FFB800"/>
  </g>
  <g clip-path="url('#clip2_3197_816')">
    <path d="M44.157 6.164a.467.467 0 0 1 .378-.319l4.945-.72L51.692.63a.467.467 0 0 1 .838 0l2.212 4.495 4.945.72a.468.468 0 0 1 .26.8l-3.58 3.498.845 4.94a.47.47 0 0 1-.678.495l-4.423-2.333-4.423 2.333a.466.466 0 0 1-.678-.495l.845-4.94-3.58-3.498a.47.47 0 0 1-.117-.48Z" fill="#FFB800"/>
  </g>
  <g clip-path="url('#clip3_3197_816')">
    <path d="M66.092 6.164a.468.468 0 0 1 .377-.319l4.946-.72L73.627.63a.467.467 0 0 1 .838 0l2.212 4.495 4.945.72a.468.468 0 0 1 .259.8l-3.579 3.498.845 4.94a.47.47 0 0 1-.678.495l-4.423-2.333-4.423 2.333a.466.466 0 0 1-.679-.495l.845-4.94-3.579-3.498a.47.47 0 0 1-.118-.48Z" fill="#FFB800"/>
  </g>
  <g clip-path="url('#clip4_3197_816')">
    <path d="M88.027 6.164a.468.468 0 0 1 .377-.319l4.946-.72L95.562.63a.467.467 0 0 1 .838 0l2.212 4.495 4.945.72a.467.467 0 0 1 .259.8l-3.579 3.498.845 4.94a.47.47 0 0 1-.678.495l-4.423-2.333-4.423 2.333a.466.466 0 0 1-.679-.495l.845-4.94-3.579-3.498a.47.47 0 0 1-.118-.48Z" fill="#FFB800"/>
  </g>
  <defs>
    <clipPath id="clip0_3197_816">
      <path fill="#fff" transform="matrix(-1 0 0 1 16.154 0)" d="M0 0h16.154v16H0z"/>
    </clipPath>
    <clipPath id="clip1_3197_816">
      <path fill="#fff" transform="matrix(-1 0 0 1 38.365 0)" d="M0 0h16.154v16H0z"/>
    </clipPath>
    <clipPath id="clip2_3197_816">
      <path fill="#fff" transform="matrix(-1 0 0 1 60.577 0)" d="M0 0h16.154v16H0z"/>
    </clipPath>
    <clipPath id="clip3_3197_816">
      <path fill="#fff" transform="matrix(-1 0 0 1 82.788 0)" d="M0 0h16.154v16H0z"/>
    </clipPath>
    <clipPath id="clip4_3197_816">
      <path fill="#fff" transform="matrix(-1 0 0 1 105 0)" d="M0 0h16.154v16H0z"/>
    </clipPath>
  </defs>
</svg>
