<svg width="104" height="16" fill="none" xmlns="http://www.w3.org/2000/svg">
  <g clip-path="url('#clip0_3197_350')">
    <path d="M.023 6.164a.469.469 0 0 1 .378-.319l4.96-.72L7.58.63a.469.469 0 0 1 .84 0l2.219 4.495 4.96.72a.469.469 0 0 1 .26.8l-3.59 3.498.848 4.94a.469.469 0 0 1-.68.495L8 13.245l-4.436 2.333a.469.469 0 0 1-.68-.495l.847-4.94-3.59-3.498a.469.469 0 0 1-.118-.48Z" fill="#FFB800"/>
  </g>
  <g clip-path="url('#clip1_3197_350')">
    <path d="M22.023 6.164a.469.469 0 0 1 .378-.319l4.96-.72L29.58.63a.469.469 0 0 1 .84 0l2.219 4.495 4.96.72a.469.469 0 0 1 .26.8l-3.59 3.498.848 4.94a.469.469 0 0 1-.68.495L30 13.245l-4.436 2.333a.469.469 0 0 1-.68-.495l.847-4.94-3.59-3.498a.468.468 0 0 1-.118-.48Z" fill="#FFB800"/>
  </g>
  <g clip-path="url('#clip2_3197_350')">
    <path d="M44.023 6.164a.469.469 0 0 1 .378-.319l4.96-.72L51.58.63a.469.469 0 0 1 .84 0l2.219 4.495 4.96.72a.469.469 0 0 1 .26.8l-3.59 3.498.848 4.94a.469.469 0 0 1-.68.495L52 13.245l-4.436 2.333a.469.469 0 0 1-.68-.495l.847-4.94-3.59-3.498a.468.468 0 0 1-.118-.48Z" fill="#FFB800"/>
  </g>
  <g clip-path="url('#clip3_3197_350')">
    <path d="M66.023 6.164a.469.469 0 0 1 .378-.319l4.96-.72L73.58.63a.469.469 0 0 1 .84 0l2.219 4.495 4.96.72a.469.469 0 0 1 .26.8l-3.59 3.498.847 4.94a.469.469 0 0 1-.68.495L74 13.245l-4.436 2.333a.469.469 0 0 1-.68-.495l.847-4.94-3.59-3.498a.468.468 0 0 1-.118-.48Z" fill="#FFB800"/>
  </g>
  <g clip-path="url('#clip4_3197_350')">
    <path d="M88.023 6.164a.469.469 0 0 1 .378-.319l4.96-.72L95.58.63a.469.469 0 0 1 .84 0l2.219 4.495 4.96.72a.469.469 0 0 1 .259.8l-3.589 3.498.848 4.94a.47.47 0 0 1-.681.495L96 13.245l-4.436 2.333a.469.469 0 0 1-.68-.495l.847-4.94-3.59-3.498a.468.468 0 0 1-.118-.48Z" fill="#C1C1C1" fill-opacity=".3"/>
  </g>
  <defs>
    <clipPath id="clip0_3197_350">
      <path fill="#fff" transform="matrix(-1 0 0 1 16 0)" d="M0 0h16v16H0z"/>
    </clipPath>
    <clipPath id="clip1_3197_350">
      <path fill="#fff" transform="matrix(-1 0 0 1 38 0)" d="M0 0h16v16H0z"/>
    </clipPath>
    <clipPath id="clip2_3197_350">
      <path fill="#fff" transform="matrix(-1 0 0 1 60 0)" d="M0 0h16v16H0z"/>
    </clipPath>
    <clipPath id="clip3_3197_350">
      <path fill="#fff" transform="matrix(-1 0 0 1 82 0)" d="M0 0h16v16H0z"/>
    </clipPath>
    <clipPath id="clip4_3197_350">
      <path fill="#fff" transform="matrix(-1 0 0 1 104 0)" d="M0 0h16v16H0z"/>
    </clipPath>
  </defs>
</svg>
