<?xml version="1.0" standalone="no"?>
<!DOCTYPE svg PUBLIC "-//W3C//DTD SVG 20010904//EN"
 "http://www.w3.org/TR/2001/REC-SVG-20010904/DTD/svg10.dtd">
<svg version="1.0" xmlns="http://www.w3.org/2000/svg"
 width="140.000000pt" height="140.000000pt" viewBox="0 0 240.000000 240.000000"
 preserveAspectRatio="xMidYMid meet">

<g transform="translate(0.000000,240.000000) scale(0.100000,-0.100000)"
fill="#000000" stroke="none">
<path d="M245 2318 c-53 -19 -104 -57 -135 -100 -62 -85 -61 -64 -58 -964 3
-917 -2 -851 77 -937 23 -25 65 -55 94 -68 l52 -24 885 0 c727 0 894 2 933 14
57 17 138 86 170 145 l22 41 3 829 c3 953 7 902 -81 991 -91 91 -24 85 -1041
84 -610 0 -900 -4 -921 -11z m1831 -144 c15 -11 37 -33 48 -48 20 -27 21 -41
24 -462 1 -239 -1 -434 -5 -434 -4 0 -94 86 -199 191 l-191 191 -313 -371
c-172 -204 -316 -371 -319 -371 -4 0 -99 76 -211 170 -112 94 -208 170 -212
170 -4 0 -117 -103 -250 -230 -133 -126 -245 -230 -248 -230 -3 0 -3 308 0
684 l5 685 30 31 c16 17 43 35 60 39 17 5 411 9 892 8 853 -2 862 -2 889 -23z"/>
<path d="M505 2001 c-139 -64 -166 -238 -52 -338 48 -42 97 -57 165 -50 169
18 248 209 139 334 -61 70 -168 93 -252 54z"/>
</g>
</svg>
