<svg width="105" height="16" viewBox="0 0 105 16" fill="none" xmlns="http://www.w3.org/2000/svg">
<g clip-path="url('#clip0_3197_816')">
<path d="M0.287602 6.16432C0.342565 5.9946 0.488787 5.87091 0.664826 5.84529L5.61024 5.12451L7.82196 0.629933C7.90066 0.469933 8.06315 0.368652 8.24102 0.368652C8.41893 0.368652 8.58139 0.469933 8.66013 0.629933L10.8719 5.12451L15.8173 5.84529C15.9933 5.87091 16.1395 5.9946 16.1945 6.16429C16.2495 6.334 16.2036 6.52028 16.0762 6.64481L12.4979 10.1434L13.3425 15.0834C13.3726 15.2593 13.3005 15.437 13.1566 15.5419C13.0751 15.6012 12.9787 15.6314 12.8818 15.6314C12.8074 15.6314 12.7328 15.6136 12.6644 15.5776L8.24106 13.2451L3.8179 15.5775C3.6604 15.6606 3.46963 15.6467 3.32571 15.5419C3.18179 15.437 3.10966 15.2593 3.13973 15.0834L3.98463 10.1434L0.405846 6.64478C0.278474 6.52028 0.232578 6.334 0.287602 6.16432Z" fill="#FFB800"></path>
</g>
<g clip-path="url('#clip1_3197_816')">
<path d="M22.2225 6.16432C22.2775 5.9946 22.4237 5.87091 22.5998 5.84529L27.5452 5.12451L29.7569 0.629933C29.8356 0.469933 29.9981 0.368652 30.176 0.368652C30.3539 0.368652 30.5163 0.469933 30.5951 0.629933L32.8069 5.12451L37.7522 5.84529C37.9282 5.87091 38.0745 5.9946 38.1294 6.16429C38.1844 6.334 38.1386 6.52028 38.0112 6.64481L34.4328 10.1434L35.2774 15.0834C35.3075 15.2593 35.2354 15.437 35.0915 15.5419C35.0101 15.6012 34.9136 15.6314 34.8167 15.6314C34.7423 15.6314 34.6677 15.6136 34.5993 15.5776L30.176 13.2451L25.7528 15.5775C25.5953 15.6606 25.4046 15.6467 25.2606 15.5419C25.1167 15.437 25.0446 15.2593 25.0747 15.0834L25.9196 10.1434L22.3408 6.64478C22.2134 6.52028 22.1675 6.334 22.2225 6.16432Z" fill="#FFB800"></path>
</g>
<g clip-path="url('#clip2_3197_816')">
<path d="M44.1575 6.16432C44.2124 5.9946 44.3587 5.87091 44.5347 5.84529L49.4801 5.12451L51.6918 0.629933C51.7705 0.469933 51.933 0.368652 52.1109 0.368652C52.2888 0.368652 52.4513 0.469933 52.53 0.629933L54.7418 5.12451L59.6871 5.84529C59.8631 5.87091 60.0094 5.9946 60.0644 6.16429C60.1194 6.334 60.0735 6.52028 59.9461 6.64481L56.3677 10.1434L57.2123 15.0834C57.2424 15.2593 57.1703 15.437 57.0264 15.5419C56.945 15.6012 56.8486 15.6314 56.7517 15.6314C56.6773 15.6314 56.6026 15.6136 56.5343 15.5776L52.1109 13.2451L47.6878 15.5775C47.5303 15.6606 47.3395 15.6467 47.1956 15.5419C47.0517 15.437 46.9795 15.2593 47.0096 15.0834L47.8545 10.1434L44.2757 6.64478C44.1483 6.52028 44.1025 6.334 44.1575 6.16432Z" fill="#FFB800"></path>
</g>
<g clip-path="url('#clip3_3197_816')">
<path d="M66.0923 6.16432C66.1473 5.9946 66.2935 5.87091 66.4695 5.84529L71.4149 5.12451L73.6266 0.629933C73.7053 0.469933 73.8678 0.368652 74.0457 0.368652C74.2236 0.368652 74.3861 0.469933 74.4648 0.629933L76.6766 5.12451L81.6219 5.84529C81.798 5.87091 81.9442 5.9946 81.9992 6.16429C82.0542 6.334 82.0083 6.52028 81.8809 6.64481L78.3025 10.1434L79.1472 15.0834C79.1773 15.2593 79.1052 15.437 78.9612 15.5419C78.8798 15.6012 78.7834 15.6314 78.6865 15.6314C78.6121 15.6314 78.5374 15.6136 78.4691 15.5776L74.0457 13.2451L69.6226 15.5775C69.4651 15.6606 69.2743 15.6467 69.1304 15.5419C68.9865 15.437 68.9144 15.2593 68.9444 15.0834L69.7893 10.1434L66.2105 6.64478C66.0832 6.52028 66.0373 6.334 66.0923 6.16432Z" fill="#FFB800"></path>
</g>
<g clip-path="url('#clip4_3197_816')">
<path d="M88.0272 6.16432C88.0822 5.9946 88.2284 5.87091 88.4045 5.84529L93.3499 5.12451L95.5616 0.629933C95.6403 0.469933 95.8028 0.368652 95.9806 0.368652C96.1586 0.368652 96.321 0.469933 96.3997 0.629933L98.6116 5.12451L103.557 5.84529C103.733 5.87091 103.879 5.9946 103.934 6.16429C103.989 6.334 103.943 6.52028 103.816 6.64481L100.237 10.1434L101.082 15.0834C101.112 15.2593 101.04 15.437 100.896 15.5419C100.815 15.6012 100.718 15.6314 100.621 15.6314C100.547 15.6314 100.472 15.6136 100.404 15.5776L95.9807 13.2451L91.5575 15.5775C91.4 15.6606 91.2092 15.6467 91.0653 15.5419C90.9214 15.437 90.8493 15.2593 90.8794 15.0834L91.7243 10.1434L88.1455 6.64478C88.0181 6.52028 87.9722 6.334 88.0272 6.16432Z" fill="#FFB800"></path>
</g>
<defs>
<clipPath id="clip0_3197_816">
<rect width="16.1538" height="16" fill="white" transform="matrix(-1 0 0 1 16.1539 0)"></rect>
</clipPath>
<clipPath id="clip1_3197_816">
<rect width="16.1538" height="16" fill="white" transform="matrix(-1 0 0 1 38.3652 0)"></rect>
</clipPath>
<clipPath id="clip2_3197_816">
<rect width="16.1538" height="16" fill="white" transform="matrix(-1 0 0 1 60.577 0)"></rect>
</clipPath>
<clipPath id="clip3_3197_816">
<rect width="16.1538" height="16" fill="white" transform="matrix(-1 0 0 1 82.7882 0)"></rect>
</clipPath>
<clipPath id="clip4_3197_816">
<rect width="16.1538" height="16" fill="white" transform="matrix(-1 0 0 1 105 0)"></rect>
</clipPath>
</defs>
</svg>
